<?xml version="1.0" encoding="UTF-8" standalone="no"?>
<!DOCTYPE svg PUBLIC "-//W3C//DTD SVG 1.1//EN"
 "http://www.w3.org/Graphics/SVG/1.1/DTD/svg11.dtd">
<!-- Generated by graphviz version 2.43.0 (0)
 -->
<!-- Title: %3 Pages: 1 -->
<svg width="442pt" height="210pt"
 viewBox="0.00 0.00 442.00 210.00" xmlns="http://www.w3.org/2000/svg" xmlns:xlink="http://www.w3.org/1999/xlink">
<g id="graph0" class="graph" transform="scale(1 1) rotate(0) translate(4 206)">
<title>%3</title>
<polygon fill="white" stroke="transparent" points="-4,4 -4,-206 438,-206 438,4 -4,4"/>
<!-- Bateria -->
<g id="node1" class="node">
<title>Bateria</title>
<polygon fill="none" stroke="black" points="8,-177 8,-198 208,-198 208,-177 8,-177"/>
<text text-anchor="start" x="92.5" y="-183.8" font-family="Times,serif" font-size="14.00">P(B)</text>
<polygon fill="none" stroke="black" points="8,-156 8,-177 208,-177 208,-156 8,-156"/>
<text text-anchor="start" x="68.5" y="-162.8" font-family="Times,serif" font-size="14.00">Batería (B)</text>
<polygon fill="none" stroke="black" points="8,-135 8,-156 120,-156 120,-135 8,-135"/>
<text text-anchor="start" x="11" y="-141.8" font-family="Times,serif" font-size="14.00">0 (descargada)</text>
<polygon fill="none" stroke="black" points="120,-135 120,-156 208,-156 208,-135 120,-135"/>
<text text-anchor="start" x="123" y="-141.8" font-family="Times,serif" font-size="14.00">1 (cargada)</text>
<polygon fill="none" stroke="black" points="8,-114 8,-135 120,-135 120,-114 8,-114"/>
<text text-anchor="start" x="54.5" y="-121.8" font-family="Times,serif" font-style="italic" font-size="14.00">p0</text>
<polygon fill="none" stroke="black" points="120,-114 120,-135 208,-135 208,-114 120,-114"/>
<text text-anchor="start" x="154.5" y="-121.8" font-family="Times,serif" font-style="italic" font-size="14.00">p1</text>
</g>
<!-- Indicador -->
<g id="node3" class="node">
<title>Indicador</title>
<polygon fill="none" stroke="black" points="260,-153 260,-174 426,-174 426,-153 260,-153"/>
<text text-anchor="start" x="308" y="-159.8" font-family="Times,serif" font-size="14.00">P(I | B, C)</text>
<polygon fill="none" stroke="black" points="260,-132 260,-153 294,-153 294,-132 260,-132"/>
<polygon fill="none" stroke="black" points="294,-132 294,-153 426,-153 426,-132 294,-132"/>
<text text-anchor="start" x="316" y="-138.8" font-family="Times,serif" font-size="14.00">Indicador (I)</text>
<polygon fill="none" stroke="black" points="260,-111 260,-132 277,-132 277,-111 260,-111"/>
<text text-anchor="start" x="263" y="-117.8" font-family="Times,serif" font-size="14.00">B</text>
<polygon fill="none" stroke="black" points="277,-111 277,-132 294,-132 294,-111 277,-111"/>
<text text-anchor="start" x="280" y="-117.8" font-family="Times,serif" font-size="14.00">C</text>
<polygon fill="none" stroke="black" points="294,-111 294,-132 361,-132 361,-111 294,-111"/>
<text text-anchor="start" x="297" y="-117.8" font-family="Times,serif" font-size="14.00">0 (vacío)</text>
<polygon fill="none" stroke="black" points="361,-111 361,-132 426,-132 426,-111 361,-111"/>
<text text-anchor="start" x="364" y="-117.8" font-family="Times,serif" font-size="14.00">1 (lleno)</text>
<polygon fill="none" stroke="black" points="260,-90 260,-111 277,-111 277,-90 260,-90"/>
<text text-anchor="start" x="263.5" y="-96.8" font-family="Times,serif" font-size="14.00">0</text>
<polygon fill="none" stroke="black" points="277,-90 277,-111 294,-111 294,-90 277,-90"/>
<text text-anchor="start" x="280.5" y="-96.8" font-family="Times,serif" font-size="14.00">0</text>
<polygon fill="none" stroke="black" points="294,-90 294,-111 361,-111 361,-90 294,-90"/>
<text text-anchor="start" x="316" y="-96.8" font-family="Times,serif" font-size="14.00">0.9</text>
<polygon fill="none" stroke="black" points="361,-90 361,-111 426,-111 426,-90 361,-90"/>
<text text-anchor="start" x="382" y="-96.8" font-family="Times,serif" font-size="14.00">0.1</text>
<polygon fill="none" stroke="black" points="260,-69 260,-90 277,-90 277,-69 260,-69"/>
<text text-anchor="start" x="263.5" y="-75.8" font-family="Times,serif" font-size="14.00">0</text>
<polygon fill="none" stroke="black" points="277,-69 277,-90 294,-90 294,-69 277,-69"/>
<text text-anchor="start" x="280.5" y="-75.8" font-family="Times,serif" font-size="14.00">1</text>
<polygon fill="none" stroke="black" points="294,-69 294,-90 361,-90 361,-69 294,-69"/>
<text text-anchor="start" x="316" y="-75.8" font-family="Times,serif" font-size="14.00">0.8</text>
<polygon fill="none" stroke="black" points="361,-69 361,-90 426,-90 426,-69 361,-69"/>
<text text-anchor="start" x="382" y="-75.8" font-family="Times,serif" font-size="14.00">0.2</text>
<polygon fill="none" stroke="black" points="260,-48 260,-69 277,-69 277,-48 260,-48"/>
<text text-anchor="start" x="263.5" y="-54.8" font-family="Times,serif" font-size="14.00">1</text>
<polygon fill="none" stroke="black" points="277,-48 277,-69 294,-69 294,-48 277,-48"/>
<text text-anchor="start" x="280.5" y="-54.8" font-family="Times,serif" font-size="14.00">0</text>
<polygon fill="none" stroke="black" points="294,-48 294,-69 361,-69 361,-48 294,-48"/>
<text text-anchor="start" x="316" y="-54.8" font-family="Times,serif" font-size="14.00">0.8</text>
<polygon fill="none" stroke="black" points="361,-48 361,-69 426,-69 426,-48 361,-48"/>
<text text-anchor="start" x="382" y="-54.8" font-family="Times,serif" font-size="14.00">0.2</text>
<polygon fill="none" stroke="black" points="260,-27 260,-48 277,-48 277,-27 260,-27"/>
<text text-anchor="start" x="263.5" y="-33.8" font-family="Times,serif" font-size="14.00">1</text>
<polygon fill="none" stroke="black" points="277,-27 277,-48 294,-48 294,-27 277,-27"/>
<text text-anchor="start" x="280.5" y="-33.8" font-family="Times,serif" font-size="14.00">1</text>
<polygon fill="none" stroke="black" points="294,-27 294,-48 361,-48 361,-27 294,-27"/>
<text text-anchor="start" x="316" y="-33.8" font-family="Times,serif" font-size="14.00">0.2</text>
<polygon fill="none" stroke="black" points="361,-27 361,-48 426,-48 426,-27 361,-27"/>
<text text-anchor="start" x="382" y="-33.8" font-family="Times,serif" font-size="14.00">0.8</text>
</g>
<!-- Bateria&#45;&gt;Indicador -->
<g id="edge1" class="edge">
<title>Bateria&#45;&gt;Indicador</title>
<path fill="none" stroke="black" d="M216.29,-130.67C224.79,-128.67 233.36,-126.65 241.8,-124.65"/>
<polygon fill="black" stroke="black" points="242.73,-128.03 251.66,-122.33 241.12,-121.22 242.73,-128.03"/>
</g>
<!-- Combustible -->
<g id="node2" class="node">
<title>Combustible</title>
<polygon fill="none" stroke="black" points="42,-67 42,-88 174,-88 174,-67 42,-67"/>
<text text-anchor="start" x="92.5" y="-73.8" font-family="Times,serif" font-size="14.00">P(C)</text>
<polygon fill="none" stroke="black" points="42,-46 42,-67 174,-67 174,-46 42,-46"/>
<text text-anchor="start" x="50" y="-52.8" font-family="Times,serif" font-size="14.00">Combustible (C)</text>
<polygon fill="none" stroke="black" points="42,-25 42,-46 109,-46 109,-25 42,-25"/>
<text text-anchor="start" x="45" y="-31.8" font-family="Times,serif" font-size="14.00">0 (vacío)</text>
<polygon fill="none" stroke="black" points="109,-25 109,-46 174,-46 174,-25 109,-25"/>
<text text-anchor="start" x="112" y="-31.8" font-family="Times,serif" font-size="14.00">1 (lleno)</text>
<polygon fill="none" stroke="black" points="42,-4 42,-25 109,-25 109,-4 42,-4"/>
<text text-anchor="start" x="64" y="-10.8" font-family="Times,serif" font-size="14.00">0.1</text>
<polygon fill="none" stroke="black" points="109,-4 109,-25 174,-25 174,-4 109,-4"/>
<text text-anchor="start" x="130" y="-10.8" font-family="Times,serif" font-size="14.00">0.9</text>
</g>
<!-- Combustible&#45;&gt;Indicador -->
<g id="edge2" class="edge">
<title>Combustible&#45;&gt;Indicador</title>
<path fill="none" stroke="black" d="M182.08,-63.25C201.12,-67.75 221.97,-72.67 242.13,-77.43"/>
<polygon fill="black" stroke="black" points="241.43,-80.86 251.97,-79.75 243.04,-74.04 241.43,-80.86"/>
</g>
</g>
</svg>
