<?xml version="1.0" encoding="UTF-8" standalone="no"?>
<!DOCTYPE svg PUBLIC "-//W3C//DTD SVG 1.1//EN"
 "http://www.w3.org/Graphics/SVG/1.1/DTD/svg11.dtd">
<!-- Generated by graphviz version 2.43.0 (0)
 -->
<!-- Title: %3 Pages: 1 -->
<svg width="270pt" height="116pt"
 viewBox="0.00 0.00 270.00 116.00" xmlns="http://www.w3.org/2000/svg" xmlns:xlink="http://www.w3.org/1999/xlink">
<g id="graph0" class="graph" transform="scale(1 1) rotate(0) translate(4 112)">
<title>%3</title>
<polygon fill="white" stroke="transparent" points="-4,4 -4,-112 266,-112 266,4 -4,4"/>
<!-- x0 -->
<g id="node1" class="node">
<title>x0</title>
<ellipse fill="none" stroke="black" cx="27" cy="-90" rx="27" ry="18"/>
<text text-anchor="middle" x="27" y="-86.3" font-family="Times,serif" font-size="14.00">1</text>
</g>
<!-- x -->
<g id="node2" class="node">
<title>x</title>
<ellipse fill="none" stroke="black" cx="27" cy="-18" rx="27" ry="18"/>
<text text-anchor="middle" x="27" y="-14.3" font-family="Times,serif" font-size="14.00">x</text>
</g>
<!-- x0&#45;&gt;x -->
<!-- z0 -->
<g id="node3" class="node">
<title>z0</title>
<ellipse fill="none" stroke="black" cx="131" cy="-90" rx="27" ry="18"/>
<text text-anchor="middle" x="131" y="-86.3" font-family="Times,serif" font-size="14.00">1</text>
</g>
<!-- x0&#45;&gt;z0 -->
<!-- z -->
<g id="node4" class="node">
<title>z</title>
<ellipse fill="none" stroke="black" cx="131" cy="-18" rx="27" ry="18"/>
<text text-anchor="middle" x="131" y="-14.3" font-family="Times,serif" font-size="14.00">z</text>
</g>
<!-- x0&#45;&gt;z -->
<g id="edge1" class="edge">
<title>x0&#45;&gt;z</title>
<path fill="none" stroke="black" d="M46.24,-77.13C62.19,-65.87 85.57,-49.37 103.57,-36.66"/>
<polygon fill="black" stroke="black" points="105.77,-39.39 111.92,-30.76 101.73,-33.67 105.77,-39.39"/>
<text text-anchor="start" x="72" y="-63.8" font-family="Times,serif" font-style="italic" font-size="14.00">b</text>
<text text-anchor="start" x="79" y="-63.8" font-family="Times,serif" font-style="italic" baseline-shift="sub" font-size="14.00">1</text>
</g>
<!-- x&#45;&gt;z -->
<g id="edge2" class="edge">
<title>x&#45;&gt;z</title>
<path fill="none" stroke="black" d="M54,-18C66.02,-18 80.49,-18 93.57,-18"/>
<polygon fill="black" stroke="black" points="93.69,-21.5 103.69,-18 93.69,-14.5 93.69,-21.5"/>
<text text-anchor="start" x="74" y="-22.8" font-family="Times,serif" font-style="italic" font-size="14.00">w</text>
</g>
<!-- z0&#45;&gt;z -->
<!-- y0 -->
<g id="node5" class="node">
<title>y0</title>
</g>
<!-- z0&#45;&gt;y0 -->
<!-- y -->
<g id="node6" class="node">
<title>y</title>
<ellipse fill="none" stroke="black" cx="235" cy="-18" rx="27" ry="18"/>
<text text-anchor="middle" x="235" y="-14.3" font-family="Times,serif" font-size="14.00">y</text>
</g>
<!-- z0&#45;&gt;y -->
<g id="edge3" class="edge">
<title>z0&#45;&gt;y</title>
<path fill="none" stroke="black" d="M150.24,-77.13C166.19,-65.87 189.57,-49.37 207.57,-36.66"/>
<polygon fill="black" stroke="black" points="209.77,-39.39 215.92,-30.76 205.73,-33.67 209.77,-39.39"/>
<text text-anchor="start" x="176" y="-63.8" font-family="Times,serif" font-style="italic" font-size="14.00">b</text>
<text text-anchor="start" x="183" y="-63.8" font-family="Times,serif" font-style="italic" baseline-shift="sub" font-size="14.00">2</text>
</g>
<!-- z&#45;&gt;y -->
<g id="edge4" class="edge">
<title>z&#45;&gt;y</title>
<path fill="none" stroke="black" d="M158,-18C170.02,-18 184.49,-18 197.57,-18"/>
<polygon fill="black" stroke="black" points="197.69,-21.5 207.69,-18 197.69,-14.5 197.69,-21.5"/>
<text text-anchor="start" x="179.5" y="-22.8" font-family="Times,serif" font-style="italic" font-size="14.00">v</text>
</g>
<!-- y0&#45;&gt;y -->
</g>
</svg>
