<?xml version="1.0" encoding="UTF-8" standalone="no"?>
<!DOCTYPE svg PUBLIC "-//W3C//DTD SVG 1.1//EN"
 "http://www.w3.org/Graphics/SVG/1.1/DTD/svg11.dtd">
<!-- Generated by graphviz version 2.43.0 (0)
 -->
<!-- Title: %3 Pages: 1 -->
<svg width="242pt" height="166pt"
 viewBox="0.00 0.00 242.00 166.00" xmlns="http://www.w3.org/2000/svg" xmlns:xlink="http://www.w3.org/1999/xlink">
<g id="graph0" class="graph" transform="scale(1 1) rotate(0) translate(4 162)">
<title>%3</title>
<polygon fill="white" stroke="transparent" points="-4,4 -4,-162 238,-162 238,4 -4,4"/>
<!-- a -->
<g id="node1" class="node">
<title>a</title>
<ellipse fill="none" stroke="black" cx="27" cy="-140" rx="27" ry="18"/>
<text text-anchor="middle" x="27" y="-136.3" font-family="Times,serif" font-size="14.00">a</text>
</g>
<!-- e -->
<g id="node2" class="node">
<title>e</title>
<ellipse fill="none" stroke="black" cx="207" cy="-45" rx="27" ry="18"/>
<text text-anchor="middle" x="207" y="-41.3" font-family="Times,serif" font-size="14.00">e</text>
</g>
<!-- a&#45;&gt;e -->
<g id="edge1" class="edge">
<title>a&#45;&gt;e</title>
<path fill="none" stroke="black" d="M54.22,-142.42C78.98,-143.48 116.34,-141.79 144,-126 165.97,-113.46 182.73,-89.69 193.25,-71.13"/>
<polygon fill="black" stroke="black" points="196.37,-72.71 198.04,-62.25 190.21,-69.38 196.37,-72.71"/>
</g>
<!-- f -->
<g id="node3" class="node">
<title>f</title>
<ellipse fill="none" stroke="black" cx="117" cy="-99" rx="27" ry="18"/>
<text text-anchor="middle" x="117" y="-95.3" font-family="Times,serif" font-size="14.00">f</text>
</g>
<!-- a&#45;&gt;f -->
<g id="edge2" class="edge">
<title>a&#45;&gt;f</title>
<path fill="none" stroke="black" d="M49.75,-129.87C60.41,-124.9 73.43,-118.83 85.1,-113.4"/>
<polygon fill="black" stroke="black" points="86.91,-116.41 94.5,-109.02 83.95,-110.07 86.91,-116.41"/>
</g>
<!-- b -->
<g id="node4" class="node">
<title>b</title>
<ellipse fill="none" stroke="black" cx="27" cy="-18" rx="27" ry="18"/>
<text text-anchor="middle" x="27" y="-14.3" font-family="Times,serif" font-size="14.00">b</text>
</g>
<!-- b&#45;&gt;e -->
<g id="edge3" class="edge">
<title>b&#45;&gt;e</title>
<path fill="none" stroke="black" d="M53.65,-15.03C77.36,-12.98 113.44,-11.63 144,-18 155.06,-20.3 166.57,-24.69 176.62,-29.27"/>
<polygon fill="black" stroke="black" points="175.23,-32.48 185.76,-33.66 178.26,-26.17 175.23,-32.48"/>
</g>
<!-- d -->
<g id="node5" class="node">
<title>d</title>
<ellipse fill="none" stroke="black" cx="117" cy="-45" rx="27" ry="18"/>
<text text-anchor="middle" x="117" y="-41.3" font-family="Times,serif" font-size="14.00">d</text>
</g>
<!-- b&#45;&gt;d -->
<g id="edge4" class="edge">
<title>b&#45;&gt;d</title>
<path fill="none" stroke="black" d="M52.05,-25.38C61.44,-28.26 72.36,-31.61 82.5,-34.72"/>
<polygon fill="black" stroke="black" points="81.7,-38.14 92.29,-37.72 83.75,-31.45 81.7,-38.14"/>
</g>
<!-- d&#45;&gt;e -->
<g id="edge7" class="edge">
<title>d&#45;&gt;e</title>
<path fill="none" stroke="black" d="M144.4,-45C152.39,-45 161.31,-45 169.82,-45"/>
<polygon fill="black" stroke="black" points="169.92,-48.5 179.92,-45 169.92,-41.5 169.92,-48.5"/>
</g>
<!-- c -->
<g id="node6" class="node">
<title>c</title>
<ellipse fill="none" stroke="black" cx="27" cy="-81" rx="27" ry="18"/>
<text text-anchor="middle" x="27" y="-77.3" font-family="Times,serif" font-size="14.00">c</text>
</g>
<!-- c&#45;&gt;f -->
<g id="edge5" class="edge">
<title>c&#45;&gt;f</title>
<path fill="none" stroke="black" d="M52.98,-86.11C61.71,-87.9 71.68,-89.94 81.08,-91.86"/>
<polygon fill="black" stroke="black" points="80.46,-95.3 90.96,-93.88 81.86,-88.44 80.46,-95.3"/>
</g>
<!-- c&#45;&gt;d -->
<g id="edge6" class="edge">
<title>c&#45;&gt;d</title>
<path fill="none" stroke="black" d="M50.66,-71.73C60.82,-67.57 72.99,-62.6 84.05,-58.07"/>
<polygon fill="black" stroke="black" points="85.48,-61.27 93.41,-54.24 82.83,-54.79 85.48,-61.27"/>
</g>
</g>
</svg>
