<?xml version="1.0" encoding="UTF-8" standalone="no"?>
<!DOCTYPE svg PUBLIC "-//W3C//DTD SVG 1.1//EN"
 "http://www.w3.org/Graphics/SVG/1.1/DTD/svg11.dtd">
<!-- Generated by graphviz version 2.43.0 (0)
 -->
<!-- Title: %3 Pages: 1 -->
<svg width="278pt" height="116pt"
 viewBox="0.00 0.00 278.00 116.00" xmlns="http://www.w3.org/2000/svg" xmlns:xlink="http://www.w3.org/1999/xlink">
<g id="graph0" class="graph" transform="scale(1 1) rotate(0) translate(4 112)">
<title>%3</title>
<polygon fill="white" stroke="transparent" points="-4,4 -4,-112 274,-112 274,4 -4,4"/>
<!-- q1 -->
<g id="node1" class="node">
<title>q1</title>
<ellipse fill="none" stroke="black" cx="27" cy="-18" rx="27" ry="18"/>
<text text-anchor="start" x="20" y="-15.3" font-family="Times,serif" font-style="italic" font-size="14.00">q</text>
<text text-anchor="start" x="27" y="-15.3" font-family="Times,serif" font-style="italic" baseline-shift="sub" font-size="14.00">1</text>
</g>
<!-- q2 -->
<g id="node2" class="node">
<title>q2</title>
<ellipse fill="none" stroke="black" cx="99" cy="-18" rx="27" ry="18"/>
<text text-anchor="start" x="92" y="-15.3" font-family="Times,serif" font-style="italic" font-size="14.00">q</text>
<text text-anchor="start" x="99" y="-15.3" font-family="Times,serif" font-style="italic" baseline-shift="sub" font-size="14.00">2</text>
</g>
<!-- q1&#45;&gt;q2 -->
<g id="edge1" class="edge">
<title>q1&#45;&gt;q2</title>
<path fill="none" stroke="black" d="M54,-18C56.61,-18 59.23,-18 61.84,-18"/>
<polygon fill="black" stroke="black" points="61.93,-21.5 71.93,-18 61.93,-14.5 61.93,-21.5"/>
</g>
<!-- x1 -->
<g id="node5" class="node">
<title>x1</title>
<ellipse fill="none" stroke="black" cx="27" cy="-90" rx="27" ry="18"/>
<text text-anchor="start" x="20" y="-87.3" font-family="Times,serif" font-style="italic" font-size="14.00">x</text>
<text text-anchor="start" x="27" y="-87.3" font-family="Times,serif" font-style="italic" baseline-shift="sub" font-size="14.00">1</text>
</g>
<!-- q1&#45;&gt;x1 -->
<g id="edge4" class="edge">
<title>q1&#45;&gt;x1</title>
<path fill="none" stroke="black" d="M27,-36.3C27,-44.02 27,-53.29 27,-61.89"/>
<polygon fill="black" stroke="black" points="23.5,-61.9 27,-71.9 30.5,-61.9 23.5,-61.9"/>
</g>
<!-- qdots -->
<g id="node3" class="node">
<title>qdots</title>
<text text-anchor="middle" x="171" y="-14.3" font-family="Times,serif" font-size="14.00">…</text>
</g>
<!-- q2&#45;&gt;qdots -->
<g id="edge2" class="edge">
<title>q2&#45;&gt;qdots</title>
<path fill="none" stroke="black" d="M126,-18C128.61,-18 131.23,-18 133.84,-18"/>
<polygon fill="black" stroke="black" points="133.93,-21.5 143.93,-18 133.93,-14.5 133.93,-21.5"/>
</g>
<!-- x2 -->
<g id="node6" class="node">
<title>x2</title>
<ellipse fill="none" stroke="black" cx="99" cy="-90" rx="27" ry="18"/>
<text text-anchor="start" x="92" y="-87.3" font-family="Times,serif" font-style="italic" font-size="14.00">x</text>
<text text-anchor="start" x="99" y="-87.3" font-family="Times,serif" font-style="italic" baseline-shift="sub" font-size="14.00">2</text>
</g>
<!-- q2&#45;&gt;x2 -->
<g id="edge5" class="edge">
<title>q2&#45;&gt;x2</title>
<path fill="none" stroke="black" d="M99,-36.3C99,-44.02 99,-53.29 99,-61.89"/>
<polygon fill="black" stroke="black" points="95.5,-61.9 99,-71.9 102.5,-61.9 95.5,-61.9"/>
</g>
<!-- qT -->
<g id="node4" class="node">
<title>qT</title>
<ellipse fill="none" stroke="black" cx="243" cy="-18" rx="27" ry="18"/>
<text text-anchor="start" x="236" y="-15.3" font-family="Times,serif" font-style="italic" font-size="14.00">q</text>
<text text-anchor="start" x="243" y="-15.3" font-family="Times,serif" font-style="italic" baseline-shift="sub" font-size="14.00">T</text>
</g>
<!-- qdots&#45;&gt;qT -->
<g id="edge3" class="edge">
<title>qdots&#45;&gt;qT</title>
<path fill="none" stroke="black" d="M198.28,-18C200.74,-18 203.19,-18 205.65,-18"/>
<polygon fill="black" stroke="black" points="205.75,-21.5 215.75,-18 205.75,-14.5 205.75,-21.5"/>
</g>
<!-- xdots -->
<g id="node7" class="node">
<title>xdots</title>
<text text-anchor="middle" x="171" y="-86.3" font-family="Times,serif" font-size="14.00">…</text>
</g>
<!-- qdots&#45;&gt;xdots -->
<!-- xT -->
<g id="node8" class="node">
<title>xT</title>
<ellipse fill="none" stroke="black" cx="243" cy="-90" rx="27" ry="18"/>
<text text-anchor="start" x="236" y="-87.3" font-family="Times,serif" font-style="italic" font-size="14.00">x</text>
<text text-anchor="start" x="243" y="-87.3" font-family="Times,serif" font-style="italic" baseline-shift="sub" font-size="14.00">T</text>
</g>
<!-- qT&#45;&gt;xT -->
<g id="edge7" class="edge">
<title>qT&#45;&gt;xT</title>
<path fill="none" stroke="black" d="M243,-36.3C243,-44.02 243,-53.29 243,-61.89"/>
<polygon fill="black" stroke="black" points="239.5,-61.9 243,-71.9 246.5,-61.9 239.5,-61.9"/>
</g>
</g>
</svg>
