<?xml version="1.0" encoding="UTF-8" standalone="no"?>
<!DOCTYPE svg PUBLIC "-//W3C//DTD SVG 1.1//EN"
 "http://www.w3.org/Graphics/SVG/1.1/DTD/svg11.dtd">
<!-- Generated by graphviz version 2.43.0 (0)
 -->
<!-- Title: %3 Pages: 1 -->
<svg width="592pt" height="185pt"
 viewBox="0.00 0.00 592.00 185.00" xmlns="http://www.w3.org/2000/svg" xmlns:xlink="http://www.w3.org/1999/xlink">
<g id="graph0" class="graph" transform="scale(1 1) rotate(0) translate(4 181)">
<title>%3</title>
<polygon fill="white" stroke="transparent" points="-4,4 -4,-181 588,-181 588,4 -4,4"/>
<!-- Lluvia -->
<g id="node1" class="node">
<title>Lluvia</title>
<polygon fill="none" stroke="black" points="8.5,-98.5 8.5,-119.5 117.5,-119.5 117.5,-98.5 8.5,-98.5"/>
<text text-anchor="start" x="50.5" y="-105.3" font-family="Times,serif" font-size="14.00">P(L)</text>
<polygon fill="none" stroke="black" points="8.5,-77.5 8.5,-98.5 117.5,-98.5 117.5,-77.5 8.5,-77.5"/>
<text text-anchor="start" x="45" y="-84.3" font-family="Times,serif" font-size="14.00">Lluvia</text>
<polygon fill="none" stroke="black" points="8.5,-56.5 8.5,-77.5 65.5,-77.5 65.5,-56.5 8.5,-56.5"/>
<text text-anchor="start" x="11.5" y="-63.3" font-family="Times,serif" font-size="14.00">no llueve</text>
<polygon fill="none" stroke="black" points="65.5,-56.5 65.5,-77.5 117.5,-77.5 117.5,-56.5 65.5,-56.5"/>
<text text-anchor="start" x="68.5" y="-63.3" font-family="Times,serif" font-size="14.00">sí llueve</text>
<polygon fill="none" stroke="black" points="8.5,-35.5 8.5,-56.5 65.5,-56.5 65.5,-35.5 8.5,-35.5"/>
<text text-anchor="start" x="28" y="-42.3" font-family="Times,serif" font-size="14.00">0.8</text>
<polygon fill="none" stroke="black" points="65.5,-35.5 65.5,-56.5 117.5,-56.5 117.5,-35.5 65.5,-35.5"/>
<text text-anchor="start" x="82.5" y="-42.3" font-family="Times,serif" font-size="14.00">0.2</text>
</g>
<!-- Aspersor -->
<g id="node2" class="node">
<title>Aspersor</title>
<polygon fill="none" stroke="black" points="169,-151.5 169,-172.5 323,-172.5 323,-151.5 169,-151.5"/>
<text text-anchor="start" x="223.5" y="-158.3" font-family="Times,serif" font-size="14.00">P(A | L)</text>
<polygon fill="none" stroke="black" points="169,-130.5 169,-151.5 226,-151.5 226,-130.5 169,-130.5"/>
<polygon fill="none" stroke="black" points="226,-130.5 226,-151.5 323,-151.5 323,-130.5 226,-130.5"/>
<text text-anchor="start" x="250" y="-137.3" font-family="Times,serif" font-size="14.00">Aspersor</text>
<polygon fill="none" stroke="black" points="169,-109.5 169,-130.5 226,-130.5 226,-109.5 169,-109.5"/>
<text text-anchor="start" x="179.5" y="-116.3" font-family="Times,serif" font-size="14.00">Lluvia</text>
<polygon fill="none" stroke="black" points="226,-109.5 226,-130.5 269,-130.5 269,-109.5 226,-109.5"/>
<text text-anchor="start" x="229" y="-116.3" font-family="Times,serif" font-size="14.00">parado</text>
<polygon fill="none" stroke="black" points="269,-109.5 269,-130.5 323,-130.5 323,-109.5 269,-109.5"/>
<text text-anchor="start" x="272" y="-116.3" font-family="Times,serif" font-size="14.00">funciona</text>
<polygon fill="none" stroke="black" points="169,-88.5 169,-109.5 226,-109.5 226,-88.5 169,-88.5"/>
<text text-anchor="start" x="172" y="-95.3" font-family="Times,serif" font-size="14.00">no llueve</text>
<polygon fill="none" stroke="black" points="226,-88.5 226,-109.5 269,-109.5 269,-88.5 226,-88.5"/>
<text text-anchor="start" x="235" y="-95.3" font-family="Times,serif" font-size="14.00">0.60</text>
<polygon fill="none" stroke="black" points="269,-88.5 269,-109.5 323,-109.5 323,-88.5 269,-88.5"/>
<text text-anchor="start" x="283.5" y="-95.3" font-family="Times,serif" font-size="14.00">0.40</text>
<polygon fill="none" stroke="black" points="169,-67.5 169,-88.5 226,-88.5 226,-67.5 169,-67.5"/>
<text text-anchor="start" x="174.5" y="-74.3" font-family="Times,serif" font-size="14.00">sí llueve</text>
<polygon fill="none" stroke="black" points="226,-67.5 226,-88.5 269,-88.5 269,-67.5 226,-67.5"/>
<text text-anchor="start" x="235" y="-74.3" font-family="Times,serif" font-size="14.00">0.99</text>
<polygon fill="none" stroke="black" points="269,-67.5 269,-88.5 323,-88.5 323,-67.5 269,-67.5"/>
<text text-anchor="start" x="283.5" y="-74.3" font-family="Times,serif" font-size="14.00">0.01</text>
</g>
<!-- Lluvia&#45;&gt;Aspersor -->
<g id="edge1" class="edge">
<title>Lluvia&#45;&gt;Aspersor</title>
<path fill="none" stroke="black" d="M125.2,-92.12C133.56,-94.1 142.29,-96.17 151.06,-98.25"/>
<polygon fill="black" stroke="black" points="150.43,-101.69 160.97,-100.59 152.04,-94.88 150.43,-101.69"/>
</g>
<!-- Césped -->
<g id="node3" class="node">
<title>Césped</title>
<polygon fill="none" stroke="black" points="375.5,-129.5 375.5,-150.5 576.5,-150.5 576.5,-129.5 375.5,-129.5"/>
<text text-anchor="start" x="445.5" y="-136.3" font-family="Times,serif" font-size="14.00">P(C | L, A)</text>
<polygon fill="none" stroke="black" points="375.5,-108.5 375.5,-129.5 487.5,-129.5 487.5,-108.5 375.5,-108.5"/>
<polygon fill="none" stroke="black" points="487.5,-108.5 487.5,-129.5 576.5,-129.5 576.5,-108.5 487.5,-108.5"/>
<text text-anchor="start" x="512" y="-115.3" font-family="Times,serif" font-size="14.00">Césped</text>
<polygon fill="none" stroke="black" points="375.5,-87.5 375.5,-108.5 432.5,-108.5 432.5,-87.5 375.5,-87.5"/>
<text text-anchor="start" x="386" y="-94.3" font-family="Times,serif" font-size="14.00">Lluvia</text>
<polygon fill="none" stroke="black" points="432.5,-87.5 432.5,-108.5 487.5,-108.5 487.5,-87.5 432.5,-87.5"/>
<text text-anchor="start" x="435.5" y="-94.3" font-family="Times,serif" font-size="14.00">Aspersor</text>
<polygon fill="none" stroke="black" points="487.5,-87.5 487.5,-108.5 528.5,-108.5 528.5,-87.5 487.5,-87.5"/>
<text text-anchor="start" x="490.5" y="-94.3" font-family="Times,serif" font-size="14.00">reseco</text>
<polygon fill="none" stroke="black" points="528.5,-87.5 528.5,-108.5 576.5,-108.5 576.5,-87.5 528.5,-87.5"/>
<text text-anchor="start" x="531.5" y="-94.3" font-family="Times,serif" font-size="14.00">mojado</text>
<polygon fill="none" stroke="black" points="375.5,-66.5 375.5,-87.5 432.5,-87.5 432.5,-66.5 375.5,-66.5"/>
<text text-anchor="start" x="378.5" y="-73.3" font-family="Times,serif" font-size="14.00">no llueve</text>
<polygon fill="none" stroke="black" points="432.5,-66.5 432.5,-87.5 487.5,-87.5 487.5,-66.5 432.5,-66.5"/>
<text text-anchor="start" x="441.5" y="-73.3" font-family="Times,serif" font-size="14.00">parado</text>
<polygon fill="none" stroke="black" points="487.5,-66.5 487.5,-87.5 528.5,-87.5 528.5,-66.5 487.5,-66.5"/>
<text text-anchor="start" x="495.5" y="-73.3" font-family="Times,serif" font-size="14.00">1.00</text>
<polygon fill="none" stroke="black" points="528.5,-66.5 528.5,-87.5 576.5,-87.5 576.5,-66.5 528.5,-66.5"/>
<text text-anchor="start" x="540" y="-73.3" font-family="Times,serif" font-size="14.00">0.00</text>
<polygon fill="none" stroke="black" points="375.5,-45.5 375.5,-66.5 432.5,-66.5 432.5,-45.5 375.5,-45.5"/>
<text text-anchor="start" x="378.5" y="-52.3" font-family="Times,serif" font-size="14.00">no llueve</text>
<polygon fill="none" stroke="black" points="432.5,-45.5 432.5,-66.5 487.5,-66.5 487.5,-45.5 432.5,-45.5"/>
<text text-anchor="start" x="436" y="-52.3" font-family="Times,serif" font-size="14.00">funciona</text>
<polygon fill="none" stroke="black" points="487.5,-45.5 487.5,-66.5 528.5,-66.5 528.5,-45.5 487.5,-45.5"/>
<text text-anchor="start" x="495.5" y="-52.3" font-family="Times,serif" font-size="14.00">0.10</text>
<polygon fill="none" stroke="black" points="528.5,-45.5 528.5,-66.5 576.5,-66.5 576.5,-45.5 528.5,-45.5"/>
<text text-anchor="start" x="540" y="-52.3" font-family="Times,serif" font-size="14.00">0.90</text>
<polygon fill="none" stroke="black" points="375.5,-24.5 375.5,-45.5 432.5,-45.5 432.5,-24.5 375.5,-24.5"/>
<text text-anchor="start" x="381" y="-31.3" font-family="Times,serif" font-size="14.00">sí llueve</text>
<polygon fill="none" stroke="black" points="432.5,-24.5 432.5,-45.5 487.5,-45.5 487.5,-24.5 432.5,-24.5"/>
<text text-anchor="start" x="441.5" y="-31.3" font-family="Times,serif" font-size="14.00">parado</text>
<polygon fill="none" stroke="black" points="487.5,-24.5 487.5,-45.5 528.5,-45.5 528.5,-24.5 487.5,-24.5"/>
<text text-anchor="start" x="495.5" y="-31.3" font-family="Times,serif" font-size="14.00">0.20</text>
<polygon fill="none" stroke="black" points="528.5,-24.5 528.5,-45.5 576.5,-45.5 576.5,-24.5 528.5,-24.5"/>
<text text-anchor="start" x="540" y="-31.3" font-family="Times,serif" font-size="14.00">0.80</text>
<polygon fill="none" stroke="black" points="375.5,-3.5 375.5,-24.5 432.5,-24.5 432.5,-3.5 375.5,-3.5"/>
<text text-anchor="start" x="381" y="-10.3" font-family="Times,serif" font-size="14.00">sí llueve</text>
<polygon fill="none" stroke="black" points="432.5,-3.5 432.5,-24.5 487.5,-24.5 487.5,-3.5 432.5,-3.5"/>
<text text-anchor="start" x="436" y="-10.3" font-family="Times,serif" font-size="14.00">funciona</text>
<polygon fill="none" stroke="black" points="487.5,-3.5 487.5,-24.5 528.5,-24.5 528.5,-3.5 487.5,-3.5"/>
<text text-anchor="start" x="495.5" y="-10.3" font-family="Times,serif" font-size="14.00">0.01</text>
<polygon fill="none" stroke="black" points="528.5,-3.5 528.5,-24.5 576.5,-24.5 576.5,-3.5 528.5,-3.5"/>
<text text-anchor="start" x="540" y="-10.3" font-family="Times,serif" font-size="14.00">0.99</text>
</g>
<!-- Lluvia&#45;&gt;Césped -->
<g id="edge3" class="edge">
<title>Lluvia&#45;&gt;Césped</title>
<path fill="none" stroke="black" d="M125.04,-61.45C136.9,-58.97 149.27,-56.81 161,-55.5 236.09,-47.13 255.66,-49.76 331,-55.5 339.49,-56.15 348.24,-57.01 357.03,-58.01"/>
<polygon fill="black" stroke="black" points="356.62,-61.49 366.96,-59.2 357.45,-54.54 356.62,-61.49"/>
</g>
<!-- Aspersor&#45;&gt;Césped -->
<g id="edge2" class="edge">
<title>Aspersor&#45;&gt;Césped</title>
<path fill="none" stroke="black" d="M331.07,-104.61C339.53,-103.01 348.22,-101.37 356.95,-99.72"/>
<polygon fill="black" stroke="black" points="357.63,-103.15 366.8,-97.86 356.33,-96.27 357.63,-103.15"/>
</g>
</g>
</svg>
