<?xml version="1.0" encoding="UTF-8" standalone="no"?>
<!DOCTYPE svg PUBLIC "-//W3C//DTD SVG 1.1//EN"
 "http://www.w3.org/Graphics/SVG/1.1/DTD/svg11.dtd">
<!-- Generated by graphviz version 2.43.0 (0)
 -->
<!-- Title: %3 Pages: 1 -->
<svg width="601pt" height="210pt"
 viewBox="0.00 0.00 601.00 210.00" xmlns="http://www.w3.org/2000/svg" xmlns:xlink="http://www.w3.org/1999/xlink">
<g id="graph0" class="graph" transform="scale(1 1) rotate(0) translate(4 206)">
<title>%3</title>
<polygon fill="white" stroke="transparent" points="-4,4 -4,-206 597,-206 597,4 -4,4"/>
<!-- Polución -->
<g id="node1" class="node">
<title>Polución</title>
<polygon fill="none" stroke="black" points="8.5,-156 8.5,-177 65.5,-177 65.5,-156 8.5,-156"/>
<text text-anchor="start" x="12.5" y="-162.8" font-family="Times,serif" font-size="14.00">Polución</text>
<polygon fill="none" stroke="black" points="8.5,-135 8.5,-156 38.5,-156 38.5,-135 8.5,-135"/>
<text text-anchor="start" x="11.5" y="-141.8" font-family="Times,serif" font-size="14.00">bajo</text>
<polygon fill="none" stroke="black" points="38.5,-135 38.5,-156 65.5,-156 65.5,-135 38.5,-135"/>
<text text-anchor="start" x="41.5" y="-141.8" font-family="Times,serif" font-size="14.00">alto</text>
<polygon fill="none" stroke="black" points="8.5,-114 8.5,-135 38.5,-135 38.5,-114 8.5,-114"/>
<text text-anchor="start" x="14.5" y="-120.8" font-family="Times,serif" font-size="14.00">0.9</text>
<polygon fill="none" stroke="black" points="38.5,-114 38.5,-135 65.5,-135 65.5,-114 38.5,-114"/>
<text text-anchor="start" x="43" y="-120.8" font-family="Times,serif" font-size="14.00">0.1</text>
</g>
<!-- Cáncer -->
<g id="node3" class="node">
<title>Cáncer</title>
<polygon fill="none" stroke="black" points="117,-143 117,-164 228,-164 228,-143 117,-143"/>
<polygon fill="none" stroke="black" points="228,-143 228,-164 331,-164 331,-143 228,-143"/>
<text text-anchor="start" x="260" y="-149.8" font-family="Times,serif" font-size="14.00">Cáncer</text>
<polygon fill="none" stroke="black" points="117,-122 117,-143 172,-143 172,-122 117,-122"/>
<text text-anchor="start" x="120" y="-128.8" font-family="Times,serif" font-size="14.00">Polución</text>
<polygon fill="none" stroke="black" points="172,-122 172,-143 228,-143 228,-122 172,-122"/>
<text text-anchor="start" x="175" y="-128.8" font-family="Times,serif" font-size="14.00">Fumador</text>
<polygon fill="none" stroke="black" points="228,-122 228,-143 281,-143 281,-122 228,-122"/>
<text text-anchor="start" x="231" y="-128.8" font-family="Times,serif" font-size="14.00">negativo</text>
<polygon fill="none" stroke="black" points="281,-122 281,-143 331,-143 331,-122 281,-122"/>
<text text-anchor="start" x="284" y="-128.8" font-family="Times,serif" font-size="14.00">positivo</text>
<polygon fill="none" stroke="black" points="117,-101 117,-122 172,-122 172,-101 117,-101"/>
<text text-anchor="start" x="132.5" y="-107.8" font-family="Times,serif" font-size="14.00">bajo</text>
<polygon fill="none" stroke="black" points="172,-101 172,-122 228,-122 228,-101 172,-101"/>
<text text-anchor="start" x="193" y="-107.8" font-family="Times,serif" font-size="14.00">no</text>
<polygon fill="none" stroke="black" points="228,-101 228,-122 281,-122 281,-101 228,-101"/>
<text text-anchor="start" x="239" y="-107.8" font-family="Times,serif" font-size="14.00">0.999</text>
<polygon fill="none" stroke="black" points="281,-101 281,-122 331,-122 331,-101 281,-101"/>
<text text-anchor="start" x="290.5" y="-107.8" font-family="Times,serif" font-size="14.00">0.001</text>
<polygon fill="none" stroke="black" points="117,-80 117,-101 172,-101 172,-80 117,-80"/>
<text text-anchor="start" x="132.5" y="-86.8" font-family="Times,serif" font-size="14.00">bajo</text>
<polygon fill="none" stroke="black" points="172,-80 172,-101 228,-101 228,-80 172,-80"/>
<text text-anchor="start" x="195" y="-86.8" font-family="Times,serif" font-size="14.00">sí</text>
<polygon fill="none" stroke="black" points="228,-80 228,-101 281,-101 281,-80 228,-80"/>
<text text-anchor="start" x="239" y="-86.8" font-family="Times,serif" font-size="14.00">0.970</text>
<polygon fill="none" stroke="black" points="281,-80 281,-101 331,-101 331,-80 281,-80"/>
<text text-anchor="start" x="290.5" y="-86.8" font-family="Times,serif" font-size="14.00">0.030</text>
<polygon fill="none" stroke="black" points="117,-59 117,-80 172,-80 172,-59 117,-59"/>
<text text-anchor="start" x="134" y="-65.8" font-family="Times,serif" font-size="14.00">alto</text>
<polygon fill="none" stroke="black" points="172,-59 172,-80 228,-80 228,-59 172,-59"/>
<text text-anchor="start" x="193" y="-65.8" font-family="Times,serif" font-size="14.00">no</text>
<polygon fill="none" stroke="black" points="228,-59 228,-80 281,-80 281,-59 228,-59"/>
<text text-anchor="start" x="239" y="-65.8" font-family="Times,serif" font-size="14.00">0.950</text>
<polygon fill="none" stroke="black" points="281,-59 281,-80 331,-80 331,-59 281,-59"/>
<text text-anchor="start" x="290.5" y="-65.8" font-family="Times,serif" font-size="14.00">0.050</text>
<polygon fill="none" stroke="black" points="117,-38 117,-59 172,-59 172,-38 117,-38"/>
<text text-anchor="start" x="134" y="-44.8" font-family="Times,serif" font-size="14.00">alto</text>
<polygon fill="none" stroke="black" points="172,-38 172,-59 228,-59 228,-38 172,-38"/>
<text text-anchor="start" x="195" y="-44.8" font-family="Times,serif" font-size="14.00">sí</text>
<polygon fill="none" stroke="black" points="228,-38 228,-59 281,-59 281,-38 228,-38"/>
<text text-anchor="start" x="239" y="-44.8" font-family="Times,serif" font-size="14.00">0.920</text>
<polygon fill="none" stroke="black" points="281,-38 281,-59 331,-59 331,-38 281,-38"/>
<text text-anchor="start" x="290.5" y="-44.8" font-family="Times,serif" font-size="14.00">0.080</text>
</g>
<!-- Polución&#45;&gt;Cáncer -->
<g id="edge1" class="edge">
<title>Polución&#45;&gt;Cáncer</title>
<path fill="none" stroke="black" d="M73.27,-137.32C81,-135.45 89.59,-133.36 98.64,-131.17"/>
<polygon fill="black" stroke="black" points="99.73,-134.51 108.62,-128.75 98.08,-127.7 99.73,-134.51"/>
</g>
<!-- Fumador -->
<g id="node2" class="node">
<title>Fumador</title>
<polygon fill="none" stroke="black" points="8.5,-67 8.5,-88 64.5,-88 64.5,-67 8.5,-67"/>
<text text-anchor="start" x="11.5" y="-73.8" font-family="Times,serif" font-size="14.00">Fumador</text>
<polygon fill="none" stroke="black" points="8.5,-46 8.5,-67 36.5,-67 36.5,-46 8.5,-46"/>
<text text-anchor="start" x="15.5" y="-52.8" font-family="Times,serif" font-size="14.00">no</text>
<polygon fill="none" stroke="black" points="36.5,-46 36.5,-67 64.5,-67 64.5,-46 36.5,-46"/>
<text text-anchor="start" x="45.5" y="-52.8" font-family="Times,serif" font-size="14.00">sí</text>
<polygon fill="none" stroke="black" points="8.5,-25 8.5,-46 36.5,-46 36.5,-25 8.5,-25"/>
<text text-anchor="start" x="13.5" y="-31.8" font-family="Times,serif" font-size="14.00">0.7</text>
<polygon fill="none" stroke="black" points="36.5,-25 36.5,-46 64.5,-46 64.5,-25 36.5,-25"/>
<text text-anchor="start" x="41.5" y="-31.8" font-family="Times,serif" font-size="14.00">0.3</text>
</g>
<!-- Fumador&#45;&gt;Cáncer -->
<g id="edge2" class="edge">
<title>Fumador&#45;&gt;Cáncer</title>
<path fill="none" stroke="black" d="M72.83,-65.38C80.79,-67.27 89.67,-69.38 99.04,-71.6"/>
<polygon fill="black" stroke="black" points="98.42,-75.05 108.96,-73.95 100.04,-68.24 98.42,-75.05"/>
</g>
<!-- RayosX -->
<g id="node4" class="node">
<title>RayosX</title>
<polygon fill="none" stroke="black" points="383,-177 383,-198 436,-198 436,-177 383,-177"/>
<polygon fill="none" stroke="black" points="436,-177 436,-198 585,-198 585,-177 436,-177"/>
<text text-anchor="start" x="486.5" y="-183.8" font-family="Times,serif" font-size="14.00">Rayos X</text>
<polygon fill="none" stroke="black" points="383,-156 383,-177 436,-177 436,-156 383,-156"/>
<text text-anchor="start" x="390" y="-162.8" font-family="Times,serif" font-size="14.00">Cáncer</text>
<polygon fill="none" stroke="black" points="436,-156 436,-177 489,-177 489,-156 436,-156"/>
<text text-anchor="start" x="439" y="-162.8" font-family="Times,serif" font-size="14.00">negativo</text>
<polygon fill="none" stroke="black" points="489,-156 489,-177 535,-177 535,-156 489,-156"/>
<text text-anchor="start" x="492" y="-162.8" font-family="Times,serif" font-size="14.00">dudoso</text>
<polygon fill="none" stroke="black" points="535,-156 535,-177 585,-177 585,-156 535,-156"/>
<text text-anchor="start" x="538" y="-162.8" font-family="Times,serif" font-size="14.00">positivo</text>
<polygon fill="none" stroke="black" points="383,-135 383,-156 436,-156 436,-135 383,-135"/>
<text text-anchor="start" x="386" y="-141.8" font-family="Times,serif" font-size="14.00">negativo</text>
<polygon fill="none" stroke="black" points="436,-135 436,-156 489,-156 489,-135 436,-135"/>
<text text-anchor="start" x="450" y="-141.8" font-family="Times,serif" font-size="14.00">0.80</text>
<polygon fill="none" stroke="black" points="489,-135 489,-156 535,-156 535,-135 489,-135"/>
<text text-anchor="start" x="499.5" y="-141.8" font-family="Times,serif" font-size="14.00">0.10</text>
<polygon fill="none" stroke="black" points="535,-135 535,-156 585,-156 585,-135 535,-135"/>
<text text-anchor="start" x="547.5" y="-141.8" font-family="Times,serif" font-size="14.00">0.10</text>
<polygon fill="none" stroke="black" points="383,-114 383,-135 436,-135 436,-114 383,-114"/>
<text text-anchor="start" x="387.5" y="-120.8" font-family="Times,serif" font-size="14.00">positivo</text>
<polygon fill="none" stroke="black" points="436,-114 436,-135 489,-135 489,-114 436,-114"/>
<text text-anchor="start" x="450" y="-120.8" font-family="Times,serif" font-size="14.00">0.10</text>
<polygon fill="none" stroke="black" points="489,-114 489,-135 535,-135 535,-114 489,-114"/>
<text text-anchor="start" x="499.5" y="-120.8" font-family="Times,serif" font-size="14.00">0.20</text>
<polygon fill="none" stroke="black" points="535,-114 535,-135 585,-135 585,-114 535,-114"/>
<text text-anchor="start" x="547.5" y="-120.8" font-family="Times,serif" font-size="14.00">0.70</text>
</g>
<!-- Cáncer&#45;&gt;RayosX -->
<g id="edge3" class="edge">
<title>Cáncer&#45;&gt;RayosX</title>
<path fill="none" stroke="black" d="M339.29,-125.36C347.81,-127.18 356.43,-129.02 364.97,-130.84"/>
<polygon fill="black" stroke="black" points="364.46,-134.31 374.97,-132.97 365.92,-127.46 364.46,-134.31"/>
</g>
<!-- Disnea -->
<g id="node5" class="node">
<title>Disnea</title>
<polygon fill="none" stroke="black" points="427,-67 427,-88 480,-88 480,-67 427,-67"/>
<polygon fill="none" stroke="black" points="480,-67 480,-88 542,-88 542,-67 480,-67"/>
<text text-anchor="start" x="492" y="-73.8" font-family="Times,serif" font-size="14.00">Disnea</text>
<polygon fill="none" stroke="black" points="427,-46 427,-67 480,-67 480,-46 427,-46"/>
<text text-anchor="start" x="434" y="-52.8" font-family="Times,serif" font-size="14.00">Cáncer</text>
<polygon fill="none" stroke="black" points="480,-46 480,-67 511,-67 511,-46 480,-46"/>
<text text-anchor="start" x="488.5" y="-52.8" font-family="Times,serif" font-size="14.00">no</text>
<polygon fill="none" stroke="black" points="511,-46 511,-67 542,-67 542,-46 511,-46"/>
<text text-anchor="start" x="521.5" y="-52.8" font-family="Times,serif" font-size="14.00">sí</text>
<polygon fill="none" stroke="black" points="427,-25 427,-46 480,-46 480,-25 427,-25"/>
<text text-anchor="start" x="430" y="-31.8" font-family="Times,serif" font-size="14.00">negativo</text>
<polygon fill="none" stroke="black" points="480,-25 480,-46 511,-46 511,-25 480,-25"/>
<text text-anchor="start" x="483" y="-31.8" font-family="Times,serif" font-size="14.00">0.70</text>
<polygon fill="none" stroke="black" points="511,-25 511,-46 542,-46 542,-25 511,-25"/>
<text text-anchor="start" x="514" y="-31.8" font-family="Times,serif" font-size="14.00">0.30</text>
<polygon fill="none" stroke="black" points="427,-4 427,-25 480,-25 480,-4 427,-4"/>
<text text-anchor="start" x="431.5" y="-10.8" font-family="Times,serif" font-size="14.00">positivo</text>
<polygon fill="none" stroke="black" points="480,-4 480,-25 511,-25 511,-4 480,-4"/>
<text text-anchor="start" x="483" y="-10.8" font-family="Times,serif" font-size="14.00">0.35</text>
<polygon fill="none" stroke="black" points="511,-4 511,-25 542,-25 542,-4 511,-4"/>
<text text-anchor="start" x="514" y="-10.8" font-family="Times,serif" font-size="14.00">0.65</text>
</g>
<!-- Cáncer&#45;&gt;Disnea -->
<g id="edge4" class="edge">
<title>Cáncer&#45;&gt;Disnea</title>
<path fill="none" stroke="black" d="M339.29,-76.64C362.68,-71.65 386.72,-66.53 408.28,-61.93"/>
<polygon fill="black" stroke="black" points="409.28,-65.29 418.33,-59.79 407.82,-58.45 409.28,-65.29"/>
</g>
</g>
</svg>
