<?xml version="1.0" encoding="UTF-8" standalone="no"?>
<!DOCTYPE svg PUBLIC "-//W3C//DTD SVG 1.1//EN"
 "http://www.w3.org/Graphics/SVG/1.1/DTD/svg11.dtd">
<!-- Generated by graphviz version 2.43.0 (0)
 -->
<!-- Title: %3 Pages: 1 -->
<svg width="601pt" height="252pt"
 viewBox="0.00 0.00 601.00 252.00" xmlns="http://www.w3.org/2000/svg" xmlns:xlink="http://www.w3.org/1999/xlink">
<g id="graph0" class="graph" transform="scale(1 1) rotate(0) translate(4 248)">
<title>%3</title>
<polygon fill="white" stroke="transparent" points="-4,4 -4,-248 597,-248 597,4 -4,4"/>
<!-- Polución -->
<g id="node1" class="node">
<title>Polución</title>
<polygon fill="none" stroke="black" points="8.5,-197.5 8.5,-218.5 65.5,-218.5 65.5,-197.5 8.5,-197.5"/>
<text text-anchor="start" x="24.5" y="-204.3" font-family="Times,serif" font-size="14.00">P(P)</text>
<polygon fill="none" stroke="black" points="8.5,-176.5 8.5,-197.5 65.5,-197.5 65.5,-176.5 8.5,-176.5"/>
<text text-anchor="start" x="12.5" y="-183.3" font-family="Times,serif" font-size="14.00">Polución</text>
<polygon fill="none" stroke="black" points="8.5,-155.5 8.5,-176.5 38.5,-176.5 38.5,-155.5 8.5,-155.5"/>
<text text-anchor="start" x="11.5" y="-162.3" font-family="Times,serif" font-size="14.00">bajo</text>
<polygon fill="none" stroke="black" points="38.5,-155.5 38.5,-176.5 65.5,-176.5 65.5,-155.5 38.5,-155.5"/>
<text text-anchor="start" x="41.5" y="-162.3" font-family="Times,serif" font-size="14.00">alto</text>
<polygon fill="none" stroke="black" points="8.5,-134.5 8.5,-155.5 38.5,-155.5 38.5,-134.5 8.5,-134.5"/>
<text text-anchor="start" x="14.5" y="-141.3" font-family="Times,serif" font-size="14.00">0.9</text>
<polygon fill="none" stroke="black" points="38.5,-134.5 38.5,-155.5 65.5,-155.5 65.5,-134.5 38.5,-134.5"/>
<text text-anchor="start" x="43" y="-141.3" font-family="Times,serif" font-size="14.00">0.1</text>
</g>
<!-- Cáncer -->
<g id="node3" class="node">
<title>Cáncer</title>
<polygon fill="none" stroke="black" points="117,-173.5 117,-194.5 331,-194.5 331,-173.5 117,-173.5"/>
<text text-anchor="start" x="195" y="-180.3" font-family="Times,serif" font-size="14.00">P(C | P, F)</text>
<polygon fill="none" stroke="black" points="117,-152.5 117,-173.5 228,-173.5 228,-152.5 117,-152.5"/>
<polygon fill="none" stroke="black" points="228,-152.5 228,-173.5 331,-173.5 331,-152.5 228,-152.5"/>
<text text-anchor="start" x="260" y="-159.3" font-family="Times,serif" font-size="14.00">Cáncer</text>
<polygon fill="none" stroke="black" points="117,-131.5 117,-152.5 172,-152.5 172,-131.5 117,-131.5"/>
<text text-anchor="start" x="120" y="-138.3" font-family="Times,serif" font-size="14.00">Polución</text>
<polygon fill="none" stroke="black" points="172,-131.5 172,-152.5 228,-152.5 228,-131.5 172,-131.5"/>
<text text-anchor="start" x="175" y="-138.3" font-family="Times,serif" font-size="14.00">Fumador</text>
<polygon fill="none" stroke="black" points="228,-131.5 228,-152.5 281,-152.5 281,-131.5 228,-131.5"/>
<text text-anchor="start" x="231" y="-138.3" font-family="Times,serif" font-size="14.00">negativo</text>
<polygon fill="none" stroke="black" points="281,-131.5 281,-152.5 331,-152.5 331,-131.5 281,-131.5"/>
<text text-anchor="start" x="284" y="-138.3" font-family="Times,serif" font-size="14.00">positivo</text>
<polygon fill="none" stroke="black" points="117,-110.5 117,-131.5 172,-131.5 172,-110.5 117,-110.5"/>
<text text-anchor="start" x="132.5" y="-117.3" font-family="Times,serif" font-size="14.00">bajo</text>
<polygon fill="none" stroke="black" points="172,-110.5 172,-131.5 228,-131.5 228,-110.5 172,-110.5"/>
<text text-anchor="start" x="193" y="-117.3" font-family="Times,serif" font-size="14.00">no</text>
<polygon fill="none" stroke="black" points="228,-110.5 228,-131.5 281,-131.5 281,-110.5 228,-110.5"/>
<text text-anchor="start" x="239" y="-117.3" font-family="Times,serif" font-size="14.00">0.999</text>
<polygon fill="none" stroke="black" points="281,-110.5 281,-131.5 331,-131.5 331,-110.5 281,-110.5"/>
<text text-anchor="start" x="290.5" y="-117.3" font-family="Times,serif" font-size="14.00">0.001</text>
<polygon fill="none" stroke="black" points="117,-89.5 117,-110.5 172,-110.5 172,-89.5 117,-89.5"/>
<text text-anchor="start" x="132.5" y="-96.3" font-family="Times,serif" font-size="14.00">bajo</text>
<polygon fill="none" stroke="black" points="172,-89.5 172,-110.5 228,-110.5 228,-89.5 172,-89.5"/>
<text text-anchor="start" x="195" y="-96.3" font-family="Times,serif" font-size="14.00">sí</text>
<polygon fill="none" stroke="black" points="228,-89.5 228,-110.5 281,-110.5 281,-89.5 228,-89.5"/>
<text text-anchor="start" x="239" y="-96.3" font-family="Times,serif" font-size="14.00">0.970</text>
<polygon fill="none" stroke="black" points="281,-89.5 281,-110.5 331,-110.5 331,-89.5 281,-89.5"/>
<text text-anchor="start" x="290.5" y="-96.3" font-family="Times,serif" font-size="14.00">0.030</text>
<polygon fill="none" stroke="black" points="117,-68.5 117,-89.5 172,-89.5 172,-68.5 117,-68.5"/>
<text text-anchor="start" x="134" y="-75.3" font-family="Times,serif" font-size="14.00">alto</text>
<polygon fill="none" stroke="black" points="172,-68.5 172,-89.5 228,-89.5 228,-68.5 172,-68.5"/>
<text text-anchor="start" x="193" y="-75.3" font-family="Times,serif" font-size="14.00">no</text>
<polygon fill="none" stroke="black" points="228,-68.5 228,-89.5 281,-89.5 281,-68.5 228,-68.5"/>
<text text-anchor="start" x="239" y="-75.3" font-family="Times,serif" font-size="14.00">0.950</text>
<polygon fill="none" stroke="black" points="281,-68.5 281,-89.5 331,-89.5 331,-68.5 281,-68.5"/>
<text text-anchor="start" x="290.5" y="-75.3" font-family="Times,serif" font-size="14.00">0.050</text>
<polygon fill="none" stroke="black" points="117,-47.5 117,-68.5 172,-68.5 172,-47.5 117,-47.5"/>
<text text-anchor="start" x="134" y="-54.3" font-family="Times,serif" font-size="14.00">alto</text>
<polygon fill="none" stroke="black" points="172,-47.5 172,-68.5 228,-68.5 228,-47.5 172,-47.5"/>
<text text-anchor="start" x="195" y="-54.3" font-family="Times,serif" font-size="14.00">sí</text>
<polygon fill="none" stroke="black" points="228,-47.5 228,-68.5 281,-68.5 281,-47.5 228,-47.5"/>
<text text-anchor="start" x="239" y="-54.3" font-family="Times,serif" font-size="14.00">0.920</text>
<polygon fill="none" stroke="black" points="281,-47.5 281,-68.5 331,-68.5 331,-47.5 281,-47.5"/>
<text text-anchor="start" x="290.5" y="-54.3" font-family="Times,serif" font-size="14.00">0.080</text>
</g>
<!-- Polución&#45;&gt;Cáncer -->
<g id="edge1" class="edge">
<title>Polución&#45;&gt;Cáncer</title>
<path fill="none" stroke="black" d="M73.27,-165.9C81.08,-163.58 89.77,-161 98.93,-158.29"/>
<polygon fill="black" stroke="black" points="100.03,-161.61 108.62,-155.41 98.04,-154.9 100.03,-161.61"/>
</g>
<!-- Fumador -->
<g id="node2" class="node">
<title>Fumador</title>
<polygon fill="none" stroke="black" points="8.5,-87.5 8.5,-108.5 64.5,-108.5 64.5,-87.5 8.5,-87.5"/>
<text text-anchor="start" x="24" y="-94.3" font-family="Times,serif" font-size="14.00">P(F)</text>
<polygon fill="none" stroke="black" points="8.5,-66.5 8.5,-87.5 64.5,-87.5 64.5,-66.5 8.5,-66.5"/>
<text text-anchor="start" x="11.5" y="-73.3" font-family="Times,serif" font-size="14.00">Fumador</text>
<polygon fill="none" stroke="black" points="8.5,-45.5 8.5,-66.5 36.5,-66.5 36.5,-45.5 8.5,-45.5"/>
<text text-anchor="start" x="15.5" y="-52.3" font-family="Times,serif" font-size="14.00">no</text>
<polygon fill="none" stroke="black" points="36.5,-45.5 36.5,-66.5 64.5,-66.5 64.5,-45.5 36.5,-45.5"/>
<text text-anchor="start" x="45.5" y="-52.3" font-family="Times,serif" font-size="14.00">sí</text>
<polygon fill="none" stroke="black" points="8.5,-24.5 8.5,-45.5 36.5,-45.5 36.5,-24.5 8.5,-24.5"/>
<text text-anchor="start" x="13.5" y="-31.3" font-family="Times,serif" font-size="14.00">0.7</text>
<polygon fill="none" stroke="black" points="36.5,-24.5 36.5,-45.5 64.5,-45.5 64.5,-24.5 36.5,-24.5"/>
<text text-anchor="start" x="41.5" y="-31.3" font-family="Times,serif" font-size="14.00">0.3</text>
</g>
<!-- Fumador&#45;&gt;Cáncer -->
<g id="edge2" class="edge">
<title>Fumador&#45;&gt;Cáncer</title>
<path fill="none" stroke="black" d="M72.83,-76.97C80.87,-79.36 89.86,-82.02 99.34,-84.83"/>
<polygon fill="black" stroke="black" points="98.38,-88.2 108.96,-87.69 100.37,-81.49 98.38,-88.2"/>
</g>
<!-- RayosX -->
<g id="node4" class="node">
<title>RayosX</title>
<polygon fill="none" stroke="black" points="383,-218.5 383,-239.5 585,-239.5 585,-218.5 383,-218.5"/>
<text text-anchor="start" x="461" y="-225.3" font-family="Times,serif" font-size="14.00">P(X | C)</text>
<polygon fill="none" stroke="black" points="383,-197.5 383,-218.5 436,-218.5 436,-197.5 383,-197.5"/>
<polygon fill="none" stroke="black" points="436,-197.5 436,-218.5 585,-218.5 585,-197.5 436,-197.5"/>
<text text-anchor="start" x="486.5" y="-204.3" font-family="Times,serif" font-size="14.00">Rayos X</text>
<polygon fill="none" stroke="black" points="383,-176.5 383,-197.5 436,-197.5 436,-176.5 383,-176.5"/>
<text text-anchor="start" x="390" y="-183.3" font-family="Times,serif" font-size="14.00">Cáncer</text>
<polygon fill="none" stroke="black" points="436,-176.5 436,-197.5 489,-197.5 489,-176.5 436,-176.5"/>
<text text-anchor="start" x="439" y="-183.3" font-family="Times,serif" font-size="14.00">negativo</text>
<polygon fill="none" stroke="black" points="489,-176.5 489,-197.5 535,-197.5 535,-176.5 489,-176.5"/>
<text text-anchor="start" x="492" y="-183.3" font-family="Times,serif" font-size="14.00">dudoso</text>
<polygon fill="none" stroke="black" points="535,-176.5 535,-197.5 585,-197.5 585,-176.5 535,-176.5"/>
<text text-anchor="start" x="538" y="-183.3" font-family="Times,serif" font-size="14.00">positivo</text>
<polygon fill="none" stroke="black" points="383,-155.5 383,-176.5 436,-176.5 436,-155.5 383,-155.5"/>
<text text-anchor="start" x="386" y="-162.3" font-family="Times,serif" font-size="14.00">negativo</text>
<polygon fill="none" stroke="black" points="436,-155.5 436,-176.5 489,-176.5 489,-155.5 436,-155.5"/>
<text text-anchor="start" x="450" y="-162.3" font-family="Times,serif" font-size="14.00">0.80</text>
<polygon fill="none" stroke="black" points="489,-155.5 489,-176.5 535,-176.5 535,-155.5 489,-155.5"/>
<text text-anchor="start" x="499.5" y="-162.3" font-family="Times,serif" font-size="14.00">0.10</text>
<polygon fill="none" stroke="black" points="535,-155.5 535,-176.5 585,-176.5 585,-155.5 535,-155.5"/>
<text text-anchor="start" x="547.5" y="-162.3" font-family="Times,serif" font-size="14.00">0.10</text>
<polygon fill="none" stroke="black" points="383,-134.5 383,-155.5 436,-155.5 436,-134.5 383,-134.5"/>
<text text-anchor="start" x="387.5" y="-141.3" font-family="Times,serif" font-size="14.00">positivo</text>
<polygon fill="none" stroke="black" points="436,-134.5 436,-155.5 489,-155.5 489,-134.5 436,-134.5"/>
<text text-anchor="start" x="450" y="-141.3" font-family="Times,serif" font-size="14.00">0.10</text>
<polygon fill="none" stroke="black" points="489,-134.5 489,-155.5 535,-155.5 535,-134.5 489,-134.5"/>
<text text-anchor="start" x="499.5" y="-141.3" font-family="Times,serif" font-size="14.00">0.20</text>
<polygon fill="none" stroke="black" points="535,-134.5 535,-155.5 585,-155.5 585,-134.5 535,-134.5"/>
<text text-anchor="start" x="547.5" y="-141.3" font-family="Times,serif" font-size="14.00">0.70</text>
</g>
<!-- Cáncer&#45;&gt;RayosX -->
<g id="edge3" class="edge">
<title>Cáncer&#45;&gt;RayosX</title>
<path fill="none" stroke="black" d="M339.29,-150.74C347.91,-152.94 356.61,-155.17 365.25,-157.38"/>
<polygon fill="black" stroke="black" points="364.41,-160.78 374.97,-159.86 366.15,-153.99 364.41,-160.78"/>
</g>
<!-- Disnea -->
<g id="node5" class="node">
<title>Disnea</title>
<polygon fill="none" stroke="black" points="427,-87.5 427,-108.5 542,-108.5 542,-87.5 427,-87.5"/>
<text text-anchor="start" x="461.5" y="-94.3" font-family="Times,serif" font-size="14.00">P(D | C)</text>
<polygon fill="none" stroke="black" points="427,-66.5 427,-87.5 480,-87.5 480,-66.5 427,-66.5"/>
<polygon fill="none" stroke="black" points="480,-66.5 480,-87.5 542,-87.5 542,-66.5 480,-66.5"/>
<text text-anchor="start" x="492" y="-73.3" font-family="Times,serif" font-size="14.00">Disnea</text>
<polygon fill="none" stroke="black" points="427,-45.5 427,-66.5 480,-66.5 480,-45.5 427,-45.5"/>
<text text-anchor="start" x="434" y="-52.3" font-family="Times,serif" font-size="14.00">Cáncer</text>
<polygon fill="none" stroke="black" points="480,-45.5 480,-66.5 511,-66.5 511,-45.5 480,-45.5"/>
<text text-anchor="start" x="488.5" y="-52.3" font-family="Times,serif" font-size="14.00">no</text>
<polygon fill="none" stroke="black" points="511,-45.5 511,-66.5 542,-66.5 542,-45.5 511,-45.5"/>
<text text-anchor="start" x="521.5" y="-52.3" font-family="Times,serif" font-size="14.00">sí</text>
<polygon fill="none" stroke="black" points="427,-24.5 427,-45.5 480,-45.5 480,-24.5 427,-24.5"/>
<text text-anchor="start" x="430" y="-31.3" font-family="Times,serif" font-size="14.00">negativo</text>
<polygon fill="none" stroke="black" points="480,-24.5 480,-45.5 511,-45.5 511,-24.5 480,-24.5"/>
<text text-anchor="start" x="483" y="-31.3" font-family="Times,serif" font-size="14.00">0.70</text>
<polygon fill="none" stroke="black" points="511,-24.5 511,-45.5 542,-45.5 542,-24.5 511,-24.5"/>
<text text-anchor="start" x="514" y="-31.3" font-family="Times,serif" font-size="14.00">0.30</text>
<polygon fill="none" stroke="black" points="427,-3.5 427,-24.5 480,-24.5 480,-3.5 427,-3.5"/>
<text text-anchor="start" x="431.5" y="-10.3" font-family="Times,serif" font-size="14.00">positivo</text>
<polygon fill="none" stroke="black" points="480,-3.5 480,-24.5 511,-24.5 511,-3.5 480,-3.5"/>
<text text-anchor="start" x="483" y="-10.3" font-family="Times,serif" font-size="14.00">0.35</text>
<polygon fill="none" stroke="black" points="511,-3.5 511,-24.5 542,-24.5 542,-3.5 511,-3.5"/>
<text text-anchor="start" x="514" y="-10.3" font-family="Times,serif" font-size="14.00">0.65</text>
</g>
<!-- Cáncer&#45;&gt;Disnea -->
<g id="edge4" class="edge">
<title>Cáncer&#45;&gt;Disnea</title>
<path fill="none" stroke="black" d="M339.29,-92.71C362.78,-86.79 386.94,-80.7 408.58,-75.25"/>
<polygon fill="black" stroke="black" points="409.49,-78.63 418.33,-72.79 407.78,-71.84 409.49,-78.63"/>
</g>
</g>
</svg>
