<?xml version="1.0" encoding="UTF-8" standalone="no"?>
<!DOCTYPE svg PUBLIC "-//W3C//DTD SVG 1.1//EN"
 "http://www.w3.org/Graphics/SVG/1.1/DTD/svg11.dtd">
<!-- Generated by graphviz version 2.43.0 (0)
 -->
<!-- Title: %3 Pages: 1 -->
<svg width="224pt" height="208pt"
 viewBox="0.00 0.00 224.00 208.08" xmlns="http://www.w3.org/2000/svg" xmlns:xlink="http://www.w3.org/1999/xlink">
<g id="graph0" class="graph" transform="scale(1 1) rotate(0) translate(4 204.08)">
<title>%3</title>
<polygon fill="white" stroke="transparent" points="-4,4 -4,-204.08 220,-204.08 220,4 -4,4"/>
<!-- x0 -->
<g id="node1" class="node">
<title>x0</title>
<ellipse fill="none" stroke="black" cx="27" cy="-181.08" rx="18" ry="18"/>
<text text-anchor="middle" x="27" y="-177.98" font-family="Times,serif" font-size="12.00">1</text>
</g>
<!-- x1 -->
<g id="node2" class="node">
<title>x1</title>
<ellipse fill="none" stroke="black" cx="27" cy="-127.08" rx="18" ry="18"/>
<text text-anchor="start" x="21" y="-124.98" font-family="Times,serif" font-style="italic" font-size="12.00">x</text>
<text text-anchor="start" x="27" y="-124.98" font-family="Times,serif" font-style="italic" baseline-shift="sub" font-size="12.00">1</text>
</g>
<!-- x0&#45;&gt;x1 -->
<!-- h0 -->
<g id="node5" class="node">
<title>h0</title>
<ellipse fill="none" stroke="black" cx="117" cy="-182.08" rx="18" ry="18"/>
<text text-anchor="middle" x="117" y="-178.98" font-family="Times,serif" font-size="12.00">1</text>
</g>
<!-- x0&#45;&gt;h0 -->
<!-- h1 -->
<g id="node6" class="node">
<title>h1</title>
<ellipse fill="none" stroke="black" cx="117" cy="-128.08" rx="18" ry="18"/>
<text text-anchor="start" x="110.5" y="-125.98" font-family="Times,serif" font-style="italic" font-size="12.00">h</text>
<text text-anchor="start" x="117.5" y="-125.98" font-family="Times,serif" font-style="italic" baseline-shift="sub" font-size="12.00">1</text>
</g>
<!-- x0&#45;&gt;h1 -->
<g id="edge1" class="edge">
<title>x0&#45;&gt;h1</title>
<path fill="none" stroke="black" d="M42.93,-172.09C56.54,-163.9 76.86,-151.65 92.62,-142.16"/>
<polygon fill="black" stroke="black" points="94.53,-145.1 101.29,-136.94 90.92,-139.1 94.53,-145.1"/>
</g>
<!-- hm -->
<g id="node8" class="node">
<title>hm</title>
<ellipse fill="none" stroke="black" cx="117" cy="-19.08" rx="19.17" ry="19.17"/>
<text text-anchor="start" x="109.5" y="-16.98" font-family="Times,serif" font-style="italic" font-size="12.00">h</text>
<text text-anchor="start" x="116.5" y="-16.98" font-family="Times,serif" font-style="italic" baseline-shift="sub" font-size="12.00">m</text>
</g>
<!-- x0&#45;&gt;hm -->
<g id="edge2" class="edge">
<title>x0&#45;&gt;hm</title>
<path fill="none" stroke="black" d="M36.44,-165.55C51.62,-137.61 83.66,-78.62 102.11,-44.65"/>
<polygon fill="black" stroke="black" points="105.24,-46.23 106.93,-35.77 99.08,-42.89 105.24,-46.23"/>
</g>
<!-- xvdots -->
<g id="node3" class="node">
<title>xvdots</title>
<text text-anchor="middle" x="27" y="-69.98" font-family="Times,serif" font-size="12.00">⋮</text>
</g>
<!-- x1&#45;&gt;xvdots -->
<!-- x1&#45;&gt;h1 -->
<g id="edge3" class="edge">
<title>x1&#45;&gt;h1</title>
<path fill="none" stroke="black" d="M45.39,-127.28C57.76,-127.42 74.63,-127.61 88.78,-127.77"/>
<polygon fill="black" stroke="black" points="88.91,-131.28 98.95,-127.89 88.99,-124.28 88.91,-131.28"/>
</g>
<!-- x1&#45;&gt;hm -->
<g id="edge4" class="edge">
<title>x1&#45;&gt;hm</title>
<path fill="none" stroke="black" d="M39.15,-113.4C53.84,-95.37 79.91,-63.38 97.56,-41.71"/>
<polygon fill="black" stroke="black" points="100.5,-43.65 104.1,-33.68 95.07,-39.23 100.5,-43.65"/>
</g>
<!-- xn -->
<g id="node4" class="node">
<title>xn</title>
<ellipse fill="none" stroke="black" cx="27" cy="-19.08" rx="18" ry="18"/>
<text text-anchor="start" x="21" y="-16.98" font-family="Times,serif" font-style="italic" font-size="12.00">x</text>
<text text-anchor="start" x="27" y="-16.98" font-family="Times,serif" font-style="italic" baseline-shift="sub" font-size="12.00">n</text>
</g>
<!-- xvdots&#45;&gt;xn -->
<!-- xn&#45;&gt;h1 -->
<g id="edge5" class="edge">
<title>xn&#45;&gt;h1</title>
<path fill="none" stroke="black" d="M39.15,-32.89C54.09,-51.4 80.78,-84.46 98.44,-106.33"/>
<polygon fill="black" stroke="black" points="95.94,-108.81 104.95,-114.39 101.39,-104.41 95.94,-108.81"/>
</g>
<!-- xn&#45;&gt;hm -->
<g id="edge6" class="edge">
<title>xn&#45;&gt;hm</title>
<path fill="none" stroke="black" d="M45.39,-19.08C57.44,-19.08 73.76,-19.08 87.68,-19.08"/>
<polygon fill="black" stroke="black" points="87.74,-22.58 97.74,-19.08 87.74,-15.58 87.74,-22.58"/>
</g>
<!-- h0&#45;&gt;h1 -->
<!-- y -->
<g id="node9" class="node">
<title>y</title>
<ellipse fill="none" stroke="black" cx="198" cy="-128.08" rx="18" ry="18"/>
<text text-anchor="middle" x="198" y="-124.98" font-family="Times,serif" font-size="12.00">y</text>
</g>
<!-- h0&#45;&gt;y -->
<g id="edge9" class="edge">
<title>h0&#45;&gt;y</title>
<path fill="none" stroke="black" d="M132.49,-172.18C144.18,-164.19 160.84,-152.8 174.3,-143.6"/>
<polygon fill="black" stroke="black" points="176.32,-146.46 182.6,-137.92 172.37,-140.68 176.32,-146.46"/>
</g>
<!-- hvdots -->
<g id="node7" class="node">
<title>hvdots</title>
<text text-anchor="middle" x="117" y="-70.98" font-family="Times,serif" font-size="12.00">⋮</text>
</g>
<!-- h1&#45;&gt;hvdots -->
<!-- h1&#45;&gt;y -->
<g id="edge7" class="edge">
<title>h1&#45;&gt;y</title>
<path fill="none" stroke="black" d="M135.14,-128.08C145.29,-128.08 158.37,-128.08 169.88,-128.08"/>
<polygon fill="black" stroke="black" points="169.89,-131.58 179.89,-128.08 169.89,-124.58 169.89,-131.58"/>
</g>
<!-- hvdots&#45;&gt;hm -->
<!-- hm&#45;&gt;y -->
<g id="edge8" class="edge">
<title>hm&#45;&gt;y</title>
<path fill="none" stroke="black" d="M128.98,-34.24C142.4,-52.75 165.21,-84.22 180.68,-105.56"/>
<polygon fill="black" stroke="black" points="177.91,-107.71 186.61,-113.75 183.58,-103.6 177.91,-107.71"/>
</g>
</g>
</svg>
