<?xml version="1.0" encoding="UTF-8" standalone="no"?>
<!DOCTYPE svg PUBLIC "-//W3C//DTD SVG 1.1//EN"
 "http://www.w3.org/Graphics/SVG/1.1/DTD/svg11.dtd">
<!-- Generated by graphviz version 2.43.0 (0)
 -->
<!-- Title: %3 Pages: 1 -->
<svg width="278pt" height="116pt"
 viewBox="0.00 0.00 278.00 116.00" xmlns="http://www.w3.org/2000/svg" xmlns:xlink="http://www.w3.org/1999/xlink">
<g id="graph0" class="graph" transform="scale(1 1) rotate(0) translate(4 112)">
<title>%3</title>
<polygon fill="white" stroke="transparent" points="-4,4 -4,-112 274,-112 274,4 -4,4"/>
<!-- x0 -->
<g id="node1" class="node">
<title>x0</title>
<ellipse fill="none" stroke="black" cx="27" cy="-90" rx="27" ry="18"/>
<text text-anchor="middle" x="27" y="-86.3" font-family="Times,serif" font-size="14.00">1</text>
</g>
<!-- x -->
<g id="node2" class="node">
<title>x</title>
<ellipse fill="none" stroke="black" cx="27" cy="-18" rx="27" ry="18"/>
<text text-anchor="middle" x="27" y="-14.3" font-family="Times,serif" font-size="14.00">x</text>
</g>
<!-- x0&#45;&gt;x -->
<!-- h0 -->
<g id="node3" class="node">
<title>h0</title>
<ellipse fill="none" stroke="black" cx="135" cy="-90" rx="27" ry="18"/>
<text text-anchor="middle" x="135" y="-86.3" font-family="Times,serif" font-size="14.00">1</text>
</g>
<!-- x0&#45;&gt;h0 -->
<!-- h -->
<g id="node4" class="node">
<title>h</title>
<ellipse fill="none" stroke="black" cx="135" cy="-18" rx="27" ry="18"/>
<text text-anchor="middle" x="135" y="-14.3" font-family="Times,serif" font-size="14.00">h</text>
</g>
<!-- x0&#45;&gt;h -->
<g id="edge1" class="edge">
<title>x0&#45;&gt;h</title>
<path fill="none" stroke="black" d="M46.46,-77.46C63.16,-66.12 87.95,-49.28 106.89,-36.42"/>
<polygon fill="black" stroke="black" points="109.09,-39.15 115.39,-30.64 105.15,-33.36 109.09,-39.15"/>
<text text-anchor="start" x="72" y="-63.8" font-family="Times,serif" font-style="italic" font-size="14.00">b</text>
<text text-anchor="start" x="82" y="-63.8" font-family="Times,serif" font-style="italic" baseline-shift="sub" font-size="14.00">1</text>
</g>
<!-- x&#45;&gt;h -->
<g id="edge2" class="edge">
<title>x&#45;&gt;h</title>
<path fill="none" stroke="black" d="M54.2,-18C67.33,-18 83.42,-18 97.71,-18"/>
<polygon fill="black" stroke="black" points="97.73,-21.5 107.73,-18 97.73,-14.5 97.73,-21.5"/>
<text text-anchor="start" x="74.5" y="-22.8" font-family="Times,serif" font-style="italic" font-size="14.00">w</text>
</g>
<!-- h0&#45;&gt;h -->
<!-- y0 -->
<g id="node5" class="node">
<title>y0</title>
</g>
<!-- h0&#45;&gt;y0 -->
<!-- y -->
<g id="node6" class="node">
<title>y</title>
<ellipse fill="none" stroke="black" cx="243" cy="-18" rx="27" ry="18"/>
<text text-anchor="middle" x="243" y="-14.3" font-family="Times,serif" font-size="14.00">y</text>
</g>
<!-- h0&#45;&gt;y -->
<g id="edge3" class="edge">
<title>h0&#45;&gt;y</title>
<path fill="none" stroke="black" d="M154.46,-77.46C171.16,-66.12 195.95,-49.28 214.89,-36.42"/>
<polygon fill="black" stroke="black" points="217.09,-39.15 223.39,-30.64 213.15,-33.36 217.09,-39.15"/>
<text text-anchor="start" x="180" y="-63.8" font-family="Times,serif" font-style="italic" font-size="14.00">b</text>
<text text-anchor="start" x="190" y="-63.8" font-family="Times,serif" font-style="italic" baseline-shift="sub" font-size="14.00">2</text>
</g>
<!-- h&#45;&gt;y -->
<g id="edge4" class="edge">
<title>h&#45;&gt;y</title>
<path fill="none" stroke="black" d="M162.2,-18C175.33,-18 191.42,-18 205.71,-18"/>
<polygon fill="black" stroke="black" points="205.73,-21.5 215.73,-18 205.73,-14.5 205.73,-21.5"/>
<text text-anchor="start" x="184.5" y="-22.8" font-family="Times,serif" font-style="italic" font-size="14.00">v</text>
</g>
<!-- y0&#45;&gt;y -->
</g>
</svg>
