<?xml version="1.0" encoding="UTF-8" standalone="no"?>
<!DOCTYPE svg PUBLIC "-//W3C//DTD SVG 1.1//EN"
 "http://www.w3.org/Graphics/SVG/1.1/DTD/svg11.dtd">
<!-- Generated by graphviz version 2.43.0 (0)
 -->
<!-- Title: %3 Pages: 1 -->
<svg width="224pt" height="214pt"
 viewBox="0.00 0.00 224.00 213.93" xmlns="http://www.w3.org/2000/svg" xmlns:xlink="http://www.w3.org/1999/xlink">
<g id="graph0" class="graph" transform="scale(1 1) rotate(0) translate(4 209.93)">
<title>%3</title>
<polygon fill="white" stroke="transparent" points="-4,4 -4,-209.93 220,-209.93 220,4 -4,4"/>
<!-- x0 -->
<g id="node1" class="node">
<title>x0</title>
<ellipse fill="none" stroke="black" cx="27" cy="-182.93" rx="18" ry="18"/>
<text text-anchor="middle" x="27" y="-179.83" font-family="Times,serif" font-size="12.00">1</text>
</g>
<!-- x1 -->
<g id="node2" class="node">
<title>x1</title>
<ellipse fill="none" stroke="black" cx="27" cy="-128.93" rx="18.44" ry="18.44"/>
<text text-anchor="start" x="20" y="-126.83" font-family="Times,serif" font-style="italic" font-size="12.00">x</text>
<text text-anchor="start" x="27" y="-126.83" font-family="Times,serif" font-style="italic" baseline-shift="sub" font-size="12.00">1</text>
</g>
<!-- x0&#45;&gt;x1 -->
<!-- h0 -->
<g id="node5" class="node">
<title>h0</title>
<ellipse fill="none" stroke="black" cx="117" cy="-187.93" rx="18" ry="18"/>
<text text-anchor="middle" x="117" y="-184.83" font-family="Times,serif" font-size="12.00">1</text>
</g>
<!-- x0&#45;&gt;h0 -->
<!-- h1 -->
<g id="node6" class="node">
<title>h1</title>
<ellipse fill="none" stroke="black" cx="117" cy="-132.93" rx="19.17" ry="19.17"/>
<text text-anchor="start" x="109.5" y="-130.83" font-family="Times,serif" font-style="italic" font-size="12.00">h</text>
<text text-anchor="start" x="117.5" y="-130.83" font-family="Times,serif" font-style="italic" baseline-shift="sub" font-size="12.00">1</text>
</g>
<!-- x0&#45;&gt;h1 -->
<g id="edge1" class="edge">
<title>x0&#45;&gt;h1</title>
<path fill="none" stroke="black" d="M42.93,-174.45C56.09,-166.97 75.52,-155.93 91.04,-147.11"/>
<polygon fill="black" stroke="black" points="93.14,-149.94 100.11,-141.96 89.68,-143.86 93.14,-149.94"/>
</g>
<!-- hm -->
<g id="node8" class="node">
<title>hm</title>
<ellipse fill="none" stroke="black" cx="117" cy="-20.93" rx="20.86" ry="20.86"/>
<text text-anchor="start" x="108" y="-18.83" font-family="Times,serif" font-style="italic" font-size="12.00">h</text>
<text text-anchor="start" x="116" y="-18.83" font-family="Times,serif" font-style="italic" baseline-shift="sub" font-size="12.00">m</text>
</g>
<!-- x0&#45;&gt;hm -->
<g id="edge2" class="edge">
<title>x0&#45;&gt;hm</title>
<path fill="none" stroke="black" d="M36.44,-167.4C51.38,-139.89 82.67,-82.3 101.24,-48.1"/>
<polygon fill="black" stroke="black" points="104.42,-49.57 106.12,-39.12 98.27,-46.23 104.42,-49.57"/>
</g>
<!-- xvdots -->
<g id="node3" class="node">
<title>xvdots</title>
<text text-anchor="middle" x="27" y="-71.83" font-family="Times,serif" font-size="12.00">⋮</text>
</g>
<!-- x1&#45;&gt;xvdots -->
<!-- x1&#45;&gt;h1 -->
<g id="edge3" class="edge">
<title>x1&#45;&gt;h1</title>
<path fill="none" stroke="black" d="M45.81,-129.74C57.78,-130.28 73.81,-131.01 87.53,-131.64"/>
<polygon fill="black" stroke="black" points="87.77,-135.15 97.92,-132.11 88.09,-128.16 87.77,-135.15"/>
</g>
<!-- x1&#45;&gt;hm -->
<g id="edge4" class="edge">
<title>x1&#45;&gt;hm</title>
<path fill="none" stroke="black" d="M39.5,-114.81C53.98,-97.04 79.06,-66.26 96.55,-44.81"/>
<polygon fill="black" stroke="black" points="99.46,-46.77 103.06,-36.81 94.03,-42.35 99.46,-46.77"/>
</g>
<!-- xn -->
<g id="node4" class="node">
<title>xn</title>
<ellipse fill="none" stroke="black" cx="27" cy="-20.93" rx="18.44" ry="18.44"/>
<text text-anchor="start" x="20" y="-18.83" font-family="Times,serif" font-style="italic" font-size="12.00">x</text>
<text text-anchor="start" x="27" y="-18.83" font-family="Times,serif" font-style="italic" baseline-shift="sub" font-size="12.00">n</text>
</g>
<!-- xvdots&#45;&gt;xn -->
<!-- xn&#45;&gt;h1 -->
<g id="edge5" class="edge">
<title>xn&#45;&gt;h1</title>
<path fill="none" stroke="black" d="M39.15,-35.11C53.99,-54.01 80.43,-87.66 98.09,-110.14"/>
<polygon fill="black" stroke="black" points="95.46,-112.45 104.39,-118.15 100.96,-108.12 95.46,-112.45"/>
</g>
<!-- xn&#45;&gt;hm -->
<g id="edge6" class="edge">
<title>xn&#45;&gt;hm</title>
<path fill="none" stroke="black" d="M45.81,-20.93C57.3,-20.93 72.54,-20.93 85.88,-20.93"/>
<polygon fill="black" stroke="black" points="86.07,-24.43 96.07,-20.93 86.07,-17.43 86.07,-24.43"/>
</g>
<!-- h0&#45;&gt;h1 -->
<!-- y -->
<g id="node9" class="node">
<title>y</title>
<ellipse fill="none" stroke="black" cx="198" cy="-132.93" rx="18" ry="18"/>
<text text-anchor="middle" x="198" y="-129.83" font-family="Times,serif" font-size="12.00">y</text>
</g>
<!-- h0&#45;&gt;y -->
<g id="edge9" class="edge">
<title>h0&#45;&gt;y</title>
<path fill="none" stroke="black" d="M132.12,-178.1C143.85,-169.94 160.74,-158.17 174.35,-148.7"/>
<polygon fill="black" stroke="black" points="176.53,-151.45 182.73,-142.86 172.53,-145.7 176.53,-151.45"/>
</g>
<!-- hvdots -->
<g id="node7" class="node">
<title>hvdots</title>
<text text-anchor="middle" x="117" y="-74.83" font-family="Times,serif" font-size="12.00">⋮</text>
</g>
<!-- h1&#45;&gt;hvdots -->
<!-- h1&#45;&gt;y -->
<g id="edge7" class="edge">
<title>h1&#45;&gt;y</title>
<path fill="none" stroke="black" d="M136.32,-132.93C146.27,-132.93 158.76,-132.93 169.82,-132.93"/>
<polygon fill="black" stroke="black" points="169.86,-136.43 179.86,-132.93 169.86,-129.43 169.86,-136.43"/>
</g>
<!-- hvdots&#45;&gt;hm -->
<!-- hm&#45;&gt;y -->
<g id="edge8" class="edge">
<title>hm&#45;&gt;y</title>
<path fill="none" stroke="black" d="M130,-37.94C143.66,-57.3 166.02,-89.01 181.12,-110.41"/>
<polygon fill="black" stroke="black" points="178.28,-112.46 186.9,-118.61 184,-108.42 178.28,-112.46"/>
</g>
</g>
</svg>
