<?xml version="1.0" encoding="UTF-8" standalone="no"?>
<!DOCTYPE svg PUBLIC "-//W3C//DTD SVG 1.1//EN"
 "http://www.w3.org/Graphics/SVG/1.1/DTD/svg11.dtd">
<!-- Generated by graphviz version 2.43.0 (0)
 -->
<!-- Title: %3 Pages: 1 -->
<svg width="278pt" height="44pt"
 viewBox="0.00 0.00 278.00 44.00" xmlns="http://www.w3.org/2000/svg" xmlns:xlink="http://www.w3.org/1999/xlink">
<g id="graph0" class="graph" transform="scale(1 1) rotate(0) translate(4 40)">
<title>%3</title>
<polygon fill="white" stroke="transparent" points="-4,4 -4,-40 274,-40 274,4 -4,4"/>
<!-- x1 -->
<g id="node1" class="node">
<title>x1</title>
<ellipse fill="none" stroke="black" cx="27" cy="-18" rx="27" ry="18"/>
<text text-anchor="start" x="20" y="-15.3" font-family="Times,serif" font-style="italic" font-size="14.00">x</text>
<text text-anchor="start" x="27" y="-15.3" font-family="Times,serif" font-style="italic" baseline-shift="sub" font-size="14.00">1</text>
</g>
<!-- x2 -->
<g id="node2" class="node">
<title>x2</title>
<ellipse fill="none" stroke="black" cx="99" cy="-18" rx="27" ry="18"/>
<text text-anchor="start" x="92" y="-15.3" font-family="Times,serif" font-style="italic" font-size="14.00">x</text>
<text text-anchor="start" x="99" y="-15.3" font-family="Times,serif" font-style="italic" baseline-shift="sub" font-size="14.00">2</text>
</g>
<!-- x1&#45;&gt;x2 -->
<g id="edge1" class="edge">
<title>x1&#45;&gt;x2</title>
<path fill="none" stroke="black" d="M54,-18C56.61,-18 59.23,-18 61.84,-18"/>
<polygon fill="black" stroke="black" points="61.93,-21.5 71.93,-18 61.93,-14.5 61.93,-21.5"/>
</g>
<!-- xdots -->
<g id="node3" class="node">
<title>xdots</title>
<text text-anchor="middle" x="171" y="-14.3" font-family="Times,serif" font-size="14.00">…</text>
</g>
<!-- x2&#45;&gt;xdots -->
<g id="edge2" class="edge">
<title>x2&#45;&gt;xdots</title>
<path fill="none" stroke="black" d="M126,-18C128.61,-18 131.23,-18 133.84,-18"/>
<polygon fill="black" stroke="black" points="133.93,-21.5 143.93,-18 133.93,-14.5 133.93,-21.5"/>
</g>
<!-- xT -->
<g id="node4" class="node">
<title>xT</title>
<ellipse fill="none" stroke="black" cx="243" cy="-18" rx="27" ry="18"/>
<text text-anchor="start" x="236" y="-15.3" font-family="Times,serif" font-style="italic" font-size="14.00">x</text>
<text text-anchor="start" x="243" y="-15.3" font-family="Times,serif" font-style="italic" baseline-shift="sub" font-size="14.00">T</text>
</g>
<!-- xdots&#45;&gt;xT -->
<g id="edge3" class="edge">
<title>xdots&#45;&gt;xT</title>
<path fill="none" stroke="black" d="M198.28,-18C200.74,-18 203.19,-18 205.65,-18"/>
<polygon fill="black" stroke="black" points="205.75,-21.5 215.75,-18 205.75,-14.5 205.75,-21.5"/>
</g>
</g>
</svg>
